{
  "accessors": [
    {
      "bufferView": 2,
      "componentType": 5126,
      "count": 2545,
      "max": [
        0.4143335223197937,
        1.1429076194763184,
        0.4143335223197937
      ],
      "min": [
        -0.41433346271514893,
        0.31424063444137573,
        -0.4143335223197937
      ],
      "type": "VEC3"
    },
    {
      "bufferView": 2,
      "byteOffset": 30540,
      "componentType": 5126,
      "count": 2545,
      "max": [
        1,
        1,
        1
      ],
      "min": [
        -1,
        -1,
        -1
      ],
      "type": "VEC3"
    },
    {
      "bufferView": 3,
      "componentType": 5126,
      "count": 2545,
      "max": [
        0.99989944696426392,
        1,
        0.74487346410751343,
        1
      ],
      "min": [
        -0.99996954202651978,
        -0.99998694658279419,
        -0.99999850988388062,
        1
      ],
      "type": "VEC4"
    },
    {
      "bufferView": 1,
      "componentType": 5126,
      "count": 2545,
      "max": [
        0.84473472833633423,
        0.86953926086425781
      ],
      "min": [
        0.010753992013633251,
        0.024511817842721939
      ],
      "type": "VEC2"
    },
    {
      "bufferView": 0,
      "componentType": 5125,
      "count": 13824,
      "max": [
        2544
      ],
      "min": [
        0
      ],
      "type": "SCALAR"
    },
    {
      "bufferView": 2,
      "byteOffset": 61080,
      "componentType": 5126,
      "count": 14828,
      "max": [
        4.2964420318603516,
        1.3856327533721924,
        4.3067541122436523
      ],
      "min": [
        2.3257350921630859,
        0.31344729661941528,
        2.3502087593078613
      ],
      "type": "VEC3"
    },
    {
      "bufferView": 2,
      "byteOffset": 239016,
      "componentType": 5126,
      "count": 14828,
      "max": [
        1,
        1,
        1
      ],
      "min": [
        -1,
        -1,
        -1
      ],
      "type": "VEC3"
    },
    {
      "bufferView": 3,
      "byteOffset": 40720,
      "componentType": 5126,
      "count": 14828,
      "max": [
        0.99998337030410767,
        0.99993520975112915,
        0.99996429681777954,
        1
      ],
      "min": [
        -0.99997818470001221,
        -0.99993669986724854,
        -0.99998420476913452,
        1
      ],
      "type": "VEC4"
    },
    {
      "bufferView": 1,
      "byteOffset": 20360,
      "componentType": 5126,
      "count": 14828,
      "max": [
        0.98612642288208008,
        0.84495139122009277
      ],
      "min": [
        0.026163747534155846,
        0.067909233272075653
      ],
      "type": "VEC2"
    },
    {
      "bufferView": 0,
      "byteOffset": 55296,
      "componentType": 5125,
      "count": 86016,
      "max": [
        14827
      ],
      "min": [
        0
      ],
      "type": "SCALAR"
    },
    {
      "bufferView": 2,
      "byteOffset": 416952,
      "componentType": 5126,
      "count": 14828,
      "max": [
        -2.4226078987121582,
        1.3856327533721924,
        4.3157815933227539
      ],
      "min": [
        -4.377812385559082,
        0.31344729661941528,
        2.3267760276794434
      ],
      "type": "VEC3"
    },
    {
      "bufferView": 2,
      "byteOffset": 594888,
      "componentType": 5126,
      "count": 14828,
      "max": [
        1,
        1,
        1
      ],
      "min": [
        -1,
        -1,
        -1
      ],
      "type": "VEC3"
    },
    {
      "bufferView": 3,
      "byteOffset": 277968,
      "componentType": 5126,
      "count": 14828,
      "max": [
        1,
        0.99993795156478882,
        0.99999940395355225,
        1
      ],
      "min": [
        -0.9999995231628418,
        -0.99993699789047241,
        -0.99999958276748657,
        1
      ],
      "type": "VEC4"
    },
    {
      "bufferView": 1,
      "byteOffset": 138984,
      "componentType": 5126,
      "count": 14828,
      "max": [
        0.97500741481781006,
        0.79815500974655151
      ],
      "min": [
        0.011862271465361118,
        0.034408014267683029
      ],
      "type": "VEC2"
    },
    {
      "bufferView": 0,
      "byteOffset": 399360,
      "componentType": 5125,
      "count": 86016,
      "max": [
        14827
      ],
      "min": [
        0
      ],
      "type": "SCALAR"
    },
    {
      "bufferView": 2,
      "byteOffset": 772824,
      "componentType": 5126,
      "count": 14828,
      "max": [
        -2.4198088645935059,
        1.3856327533721924,
        -2.4354038238525391
      ],
      "min": [
        -4.3802127838134766,
        0.31344729661941528,
        -4.3846673965454102
      ],
      "type": "VEC3"
    },
    {
      "bufferView": 2,
      "byteOffset": 950760,
      "componentType": 5126,
      "count": 14828,
      "max": [
        1,
        1,
        1
      ],
      "min": [
        -1,
        -1,
        -1
      ],
      "type": "VEC3"
    },
    {
      "bufferView": 3,
      "byteOffset": 515216,
      "componentType": 5126,
      "count": 14828,
      "max": [
        0.99998056888580322,
        0.99992901086807251,
        0.9999663233757019,
        1
      ],
      "min": [
        -0.99998569488525391,
        -0.99992889165878296,
        -0.99998313188552856,
        1
      ],
      "type": "VEC4"
    },
    {
      "bufferView": 1,
      "byteOffset": 257608,
      "componentType": 5126,
      "count": 14828,
      "max": [
        0.97543412446975708,
        0.88966524600982666
      ],
      "min": [
        0.021394854411482811,
        0.062745027244091034
      ],
      "type": "VEC2"
    },
    {
      "bufferView": 0,
      "byteOffset": 743424,
      "componentType": 5125,
      "count": 86016,
      "max": [
        14827
      ],
      "min": [
        0
      ],
      "type": "SCALAR"
    },
    {
      "bufferView": 2,
      "byteOffset": 1128696,
      "componentType": 5126,
      "count": 6897,
      "max": [
        6.2744150161743164,
        0.31302487850189209,
        6.2744150161743164
      ],
      "min": [
        -6.2744140625,
        0.001210894319228828,
        -6.2744140625
      ],
      "type": "VEC3"
    },
    {
      "bufferView": 2,
      "byteOffset": 1211460,
      "componentType": 5126,
      "count": 6897,
      "max": [
        1,
        1,
        1
      ],
      "min": [
        -1,
        -1,
        -1
      ],
      "type": "VEC3"
    },
    {
      "bufferView": 3,
      "byteOffset": 752464,
      "componentType": 5126,
      "count": 6897,
      "max": [
        1,
        0.9999997615814209,
        0.9999958872795105,
        1
      ],
      "min": [
        -1,
        -1,
        -0.99991190433502197,
        1
      ],
      "type": "VEC4"
    },
    {
      "bufferView": 1,
      "byteOffset": 376232,
      "componentType": 5126,
      "count": 6897,
      "max": [
        1,
        0.99984323978424072
      ],
      "min": [
        0,
        5.5511151231257827e-17
      ],
      "type": "VEC2"
    },
    {
      "bufferView": 0,
      "byteOffset": 1087488,
      "componentType": 5125,
      "count": 41088,
      "max": [
        6896
      ],
      "min": [
        0
      ],
      "type": "SCALAR"
    },
    {
      "bufferView": 2,
      "byteOffset": 1294224,
      "componentType": 5126,
      "count": 1393,
      "max": [
        5.9769840240478516,
        0.31336647272109985,
        5.9781246185302734
      ],
      "min": [
        -5.9769854545593262,
        0.21807427704334259,
        -5.9781193733215332
      ],
      "type": "VEC3"
    },
    {
      "bufferView": 2,
      "byteOffset": 1310940,
      "componentType": 5126,
      "count": 1393,
      "max": [
        1,
        1,
        1
      ],
      "min": [
        -1,
        -4.913986413157545e-05,
        -1
      ],
      "type": "VEC3"
    },
    {
      "bufferView": 3,
      "byteOffset": 862816,
      "componentType": 5126,
      "count": 1393,
      "max": [
        0.53844010829925537,
        1,
        4.4644035369856283e-05,
        1
      ],
      "min": [
        -0.54064124822616577,
        -1,
        -1,
        1
      ],
      "type": "VEC4"
    },
    {
      "bufferView": 1,
      "byteOffset": 431408,
      "componentType": 5126,
      "count": 1393,
      "max": [
        1,
        0.99984842538833618
      ],
      "min": [
        0,
        0
      ],
      "type": "VEC2"
    },
    {
      "bufferView": 0,
      "byteOffset": 1251840,
      "componentType": 5125,
      "count": 8064,
      "max": [
        1392
      ],
      "min": [
        0
      ],
      "type": "SCALAR"
    },
    {
      "bufferView": 2,
      "byteOffset": 1327656,
      "componentType": 5126,
      "count": 14828,
      "max": [
        4.2756624221801758,
        1.3856327533721924,
        -2.4396839141845703
      ],
      "min": [
        2.312706470489502,
        0.31344729661941528,
        -4.3962621688842773
      ],
      "type": "VEC3"
    },
    {
      "bufferView": 2,
      "byteOffset": 1505592,
      "componentType": 5126,
      "count": 14828,
      "max": [
        1,
        1,
        1
      ],
      "min": [
        -1,
        -1,
        -1
      ],
      "type": "VEC3"
    },
    {
      "bufferView": 3,
      "byteOffset": 885104,
      "componentType": 5126,
      "count": 14828,
      "max": [
        1,
        0.99995720386505127,
        0.99986594915390015,
        1
      ],
      "min": [
        -0.99999320507049561,
        -0.99995684623718262,
        -0.99999946355819702,
        1
      ],
      "type": "VEC4"
    },
    {
      "bufferView": 1,
      "byteOffset": 442552,
      "componentType": 5126,
      "count": 14828,
      "max": [
        0.98048388957977295,
        0.87455737590789795
      ],
      "min": [
        0.029153786599636078,
        0.039803005754947662
      ],
      "type": "VEC2"
    },
    {
      "bufferView": 0,
      "byteOffset": 1284096,
      "componentType": 5125,
      "count": 86016,
      "max": [
        14827
      ],
      "min": [
        0
      ],
      "type": "SCALAR"
    }
  ],
  "asset": {
    "extras": {
      "author": "praveen maurya (https://sketchfab.com/praveen293027)",
      "license": "CC-BY-4.0 (http://creativecommons.org/licenses/by/4.0/)",
      "source": "https://sketchfab.com/3d-models/3d-ludo-king-game-fea67bc5f8d0428dade7289d9f85174d",
      "title": "3D Ludo King game"
    },
    "generator": "Sketchfab-7.21.0",
    "version": "2.0"
  },
  "bufferViews": [
    {
      "buffer": 0,
      "byteLength": 1628160,
      "byteOffset": 0,
      "name": "floatBufferViews",
      "target": 34963
    },
    {
      "buffer": 0,
      "byteLength": 561176,
      "byteOffset": 1628160,
      "byteStride": 8,
      "name": "floatBufferViews",
      "target": 34962
    },
    {
      "buffer": 0,
      "byteLength": 1683528,
      "byteOffset": 2189336,
      "byteStride": 12,
      "name": "floatBufferViews",
      "target": 34962
    },
    {
      "buffer": 0,
      "byteLength": 1122352,
      "byteOffset": 3872864,
      "byteStride": 16,
      "name": "floatBufferViews",
      "target": 34962
    }
  ],
  "buffers": [
    {
      "byteLength": 4995216,
      "uri": "scene.bin"
    }
  ],
  "images": [
    {
      "uri": "textures/ludoblinn6_baseColor.jpeg"
    },
    {
      "uri": "textures/ludoblinn6_metallicRoughness.png"
    },
    {
      "uri": "textures/ludoblinn6_normal.png"
    },
    {
      "uri": "textures/ludoblinn4_baseColor.jpeg"
    },
    {
      "uri": "textures/ludoblinn4_metallicRoughness.png"
    },
    {
      "uri": "textures/ludoblinn4_normal.png"
    },
    {
      "uri": "textures/ludoblinn3_baseColor.jpeg"
    },
    {
      "uri": "textures/ludoblinn3_metallicRoughness.png"
    },
    {
      "uri": "textures/ludoblinn3_normal.png"
    },
    {
      "uri": "textures/ludoblinn2_baseColor.jpeg"
    },
    {
      "uri": "textures/ludoblinn2_metallicRoughness.png"
    },
    {
      "uri": "textures/ludoblinn2_normal.png"
    },
    {
      "uri": "textures/ludolambert3_baseColor.jpeg"
    },
    {
      "uri": "textures/ludolambert3_metallicRoughness.png"
    },
    {
      "uri": "textures/ludolambert3_normal.png"
    },
    {
      "uri": "textures/ludolambert2_baseColor.jpeg"
    },
    {
      "uri": "textures/ludolambert2_metallicRoughness.png"
    },
    {
      "uri": "textures/ludolambert2_normal.png"
    },
    {
      "uri": "textures/ludoblinn5_baseColor.jpeg"
    },
    {
      "uri": "textures/ludoblinn5_metallicRoughness.png"
    },
    {
      "uri": "textures/ludoblinn5_normal.png"
    }
  ],
  "materials": [
    {
      "doubleSided": true,
      "emissiveFactor": [
        0,
        0,
        0
      ],
      "name": "ludoblinn6",
      "normalTexture": {
        "index": 2,
        "scale": 1,
        "texCoord": 0
      },
      "occlusionTexture": {
        "index": 1,
        "strength": 1,
        "texCoord": 0
      },
      "pbrMetallicRoughness": {
        "baseColorFactor": [
          1,
          1,
          1,
          1
        ],
        "baseColorTexture": {
          "index": 0,
          "texCoord": 0
        },
        "metallicFactor": 1,
        "metallicRoughnessTexture": {
          "index": 1,
          "texCoord": 0
        },
        "roughnessFactor": 1
      }
    },
    {
      "doubleSided": true,
      "emissiveFactor": [
        0,
        0,
        0
      ],
      "name": "ludoblinn4",
      "normalTexture": {
        "index": 5,
        "scale": 1,
        "texCoord": 0
      },
      "occlusionTexture": {
        "index": 4,
        "strength": 1,
        "texCoord": 0
      },
      "pbrMetallicRoughness": {
        "baseColorFactor": [
          1,
          1,
          1,
          1
        ],
        "baseColorTexture": {
          "index": 3,
          "texCoord": 0
        },
        "metallicFactor": 1,
        "metallicRoughnessTexture": {
          "index": 4,
          "texCoord": 0
        },
        "roughnessFactor": 1
      }
    },
    {
      "doubleSided": true,
      "emissiveFactor": [
        0,
        0,
        0
      ],
      "name": "ludoblinn3",
      "normalTexture": {
        "index": 8,
        "scale": 1,
        "texCoord": 0
      },
      "occlusionTexture": {
        "index": 7,
        "strength": 1,
        "texCoord": 0
      },
      "pbrMetallicRoughness": {
        "baseColorFactor": [
          1,
          1,
          1,
          1
        ],
        "baseColorTexture": {
          "index": 6,
          "texCoord": 0
        },
        "metallicFactor": 1,
        "metallicRoughnessTexture": {
          "index": 7,
          "texCoord": 0
        },
        "roughnessFactor": 1
      }
    },
    {
      "doubleSided": true,
      "emissiveFactor": [
        0,
        0,
        0
      ],
      "name": "ludoblinn2",
      "normalTexture": {
        "index": 11,
        "scale": 1,
        "texCoord": 0
      },
      "occlusionTexture": {
        "index": 10,
        "strength": 1,
        "texCoord": 0
      },
      "pbrMetallicRoughness": {
        "baseColorFactor": [
          1,
          1,
          1,
          1
        ],
        "baseColorTexture": {
          "index": 9,
          "texCoord": 0
        },
        "metallicFactor": 1,
        "metallicRoughnessTexture": {
          "index": 10,
          "texCoord": 0
        },
        "roughnessFactor": 1
      }
    },
    {
      "doubleSided": true,
      "emissiveFactor": [
        0,
        0,
        0
      ],
      "name": "ludolambert3",
      "normalTexture": {
        "index": 14,
        "scale": 1,
        "texCoord": 0
      },
      "occlusionTexture": {
        "index": 13,
        "strength": 1,
        "texCoord": 0
      },
      "pbrMetallicRoughness": {
        "baseColorFactor": [
          1,
          1,
          1,
          1
        ],
        "baseColorTexture": {
          "index": 12,
          "texCoord": 0
        },
        "metallicFactor": 1,
        "metallicRoughnessTexture": {
          "index": 13,
          "texCoord": 0
        },
        "roughnessFactor": 1
      }
    },
    {
      "doubleSided": true,
      "emissiveFactor": [
        0,
        0,
        0
      ],
      "name": "ludolambert2",
      "normalTexture": {
        "index": 17,
        "scale": 1,
        "texCoord": 0
      },
      "occlusionTexture": {
        "index": 16,
        "strength": 1,
        "texCoord": 0
      },
      "pbrMetallicRoughness": {
        "baseColorFactor": [
          1,
          1,
          1,
          1
        ],
        "baseColorTexture": {
          "index": 15,
          "texCoord": 0
        },
        "metallicFactor": 1,
        "metallicRoughnessTexture": {
          "index": 16,
          "texCoord": 0
        },
        "roughnessFactor": 1
      }
    },
    {
      "doubleSided": true,
      "emissiveFactor": [
        0,
        0,
        0
      ],
      "name": "ludoblinn5",
      "normalTexture": {
        "index": 20,
        "scale": 1,
        "texCoord": 0
      },
      "occlusionTexture": {
        "index": 19,
        "strength": 1,
        "texCoord": 0
      },
      "pbrMetallicRoughness": {
        "baseColorFactor": [
          1,
          1,
          1,
          1
        ],
        "baseColorTexture": {
          "index": 18,
          "texCoord": 0
        },
        "metallicFactor": 1,
        "metallicRoughnessTexture": {
          "index": 19,
          "texCoord": 0
        },
        "roughnessFactor": 1
      }
    }
  ],
  "meshes": [
    {
      "name": "ludo:ludo_ludo:blinn6_0",
      "primitives": [
        {
          "attributes": {
            "NORMAL": 1,
            "POSITION": 0,
            "TANGENT": 2,
            "TEXCOORD_0": 3
          },
          "indices": 4,
          "material": 0,
          "mode": 4
        }
      ]
    },
    {
      "name": "ludo:ludo1_ludo:blinn4_0",
      "primitives": [
        {
          "attributes": {
            "NORMAL": 6,
            "POSITION": 5,
            "TANGENT": 7,
            "TEXCOORD_0": 8
          },
          "indices": 9,
          "material": 1,
          "mode": 4
        }
      ]
    },
    {
      "name": "ludo:ludo2_ludo:blinn3_0",
      "primitives": [
        {
          "attributes": {
            "NORMAL": 11,
            "POSITION": 10,
            "TANGENT": 12,
            "TEXCOORD_0": 13
          },
          "indices": 14,
          "material": 2,
          "mode": 4
        }
      ]
    },
    {
      "name": "ludo:ludo3_ludo:blinn2_0",
      "primitives": [
        {
          "attributes": {
            "NORMAL": 16,
            "POSITION": 15,
            "TANGENT": 17,
            "TEXCOORD_0": 18
          },
          "indices": 19,
          "material": 3,
          "mode": 4
        }
      ]
    },
    {
      "name": "ludo:ludo4_ludo:lambert3_0",
      "primitives": [
        {
          "attributes": {
            "NORMAL": 21,
            "POSITION": 20,
            "TANGENT": 22,
            "TEXCOORD_0": 23
          },
          "indices": 24,
          "material": 4,
          "mode": 4
        }
      ]
    },
    {
      "name": "ludo:ludo5_ludo:lambert2_0",
      "primitives": [
        {
          "attributes": {
            "NORMAL": 26,
            "POSITION": 25,
            "TANGENT": 27,
            "TEXCOORD_0": 28
          },
          "indices": 29,
          "material": 5,
          "mode": 4
        }
      ]
    },
    {
      "name": "ludo:ludo6_ludo:blinn5_0",
      "primitives": [
        {
          "attributes": {
            "NORMAL": 31,
            "POSITION": 30,
            "TANGENT": 32,
            "TEXCOORD_0": 33
          },
          "indices": 34,
          "material": 6,
          "mode": 4
        }
      ]
    }
  ],
  "nodes": [
    {
      "children": [
        1
      ],
      "name": "RootNode (gltf orientation matrix)",
      "rotation": [
        -0.70710678118654746,
        -0,
        -0,
        0.70710678118654757
      ]
    },
    {
      "children": [
        2
      ],
      "name": "RootNode (model correction matrix)"
    },
    {
      "children": [
        3
      ],
      "matrix": [
        1,
        0,
        0,
        0,
        0,
        0,
        1,
        0,
        0,
        -1,
        0,
        0,
        0,
        0,
        0,
        1
      ],
      "name": "d1ebbd15dcf447a4bf8eedb27b758890.fbx"
    },
    {
      "children": [
        4
      ],
      "name": "RootNode"
    },
    {
      "children": [
        5,
        7,
        9,
        11,
        13,
        15,
        17
      ],
      "name": "ludo:ludo"
    },
    {
      "children": [
        6
      ],
      "name": "ludo:ludo"
    },
    {
      "mesh": 0,
      "name": "ludo:ludo_ludo:blinn6_0"
    },
    {
      "children": [
        8
      ],
      "name": "ludo:ludo1"
    },
    {
      "mesh": 1,
      "name": "ludo:ludo1_ludo:blinn4_0"
    },
    {
      "children": [
        10
      ],
      "name": "ludo:ludo2"
    },
    {
      "mesh": 2,
      "name": "ludo:ludo2_ludo:blinn3_0"
    },
    {
      "children": [
        12
      ],
      "name": "ludo:ludo3"
    },
    {
      "mesh": 3,
      "name": "ludo:ludo3_ludo:blinn2_0"
    },
    {
      "children": [
        14
      ],
      "name": "ludo:ludo4"
    },
    {
      "mesh": 4,
      "name": "ludo:ludo4_ludo:lambert3_0"
    },
    {
      "children": [
        16
      ],
      "name": "ludo:ludo5"
    },
    {
      "mesh": 5,
      "name": "ludo:ludo5_ludo:lambert2_0"
    },
    {
      "children": [
        18
      ],
      "name": "ludo:ludo6"
    },
    {
      "mesh": 6,
      "name": "ludo:ludo6_ludo:blinn5_0"
    }
  ],
  "samplers": [
    {
      "magFilter": 9729,
      "minFilter": 9987,
      "wrapS": 10497,
      "wrapT": 10497
    }
  ],
  "scene": 0,
  "scenes": [
    {
      "name": "OSG_Scene",
      "nodes": [
        0
      ]
    }
  ],
  "textures": [
    {
      "sampler": 0,
      "source": 0
    },
    {
      "sampler": 0,
      "source": 1
    },
    {
      "sampler": 0,
      "source": 2
    },
    {
      "sampler": 0,
      "source": 3
    },
    {
      "sampler": 0,
      "source": 4
    },
    {
      "sampler": 0,
      "source": 5
    },
    {
      "sampler": 0,
      "source": 6
    },
    {
      "sampler": 0,
      "source": 7
    },
    {
      "sampler": 0,
      "source": 8
    },
    {
      "sampler": 0,
      "source": 9
    },
    {
      "sampler": 0,
      "source": 10
    },
    {
      "sampler": 0,
      "source": 11
    },
    {
      "sampler": 0,
      "source": 12
    },
    {
      "sampler": 0,
      "source": 13
    },
    {
      "sampler": 0,
      "source": 14
    },
    {
      "sampler": 0,
      "source": 15
    },
    {
      "sampler": 0,
      "source": 16
    },
    {
      "sampler": 0,
      "source": 17
    },
    {
      "sampler": 0,
      "source": 18
    },
    {
      "sampler": 0,
      "source": 19
    },
    {
      "sampler": 0,
      "source": 20
    }
  ]
}

