{
    "asset" : {
        "generator" : "Khronos glTF Blender I/O v1.5.17",
        "version" : "2.0"
    },
    "scene" : 0,
    "scenes" : [
        {
            "name" : "Scene",
            "nodes" : [
                0,
                1,
                2
            ]
        }
    ],
    "nodes" : [
        {
            "name" : "Light",
            "rotation" : [
                0.16907575726509094,
                0.7558803558349609,
                -0.27217137813568115,
                0.570947527885437
            ],
            "translation" : [
                4.076245307922363,
                5.903861999511719,
                -1.0054539442062378
            ]
        },
        {
            "name" : "Camera",
            "rotation" : [
                0.483536034822464,
                0.33687159419059753,
                -0.20870360732078552,
                0.7804827094078064
            ],
            "translation" : [
                7.358891487121582,
                4.958309173583984,
                6.925790786743164
            ]
        },
        {
            "mesh" : 0,
            "name" : "Dice",
            "rotation" : [
                0.16486215591430664,
                -0.8158396482467651,
                0.5521181225776672,
                0.04890528693795204
            ]
        }
    ],
    "materials" : [
        {
            "doubleSided" : true,
            "name" : "white",
            "pbrMetallicRoughness" : {
                "baseColorFactor" : [
                    0.6399999856948853,
                    0.6399999856948853,
                    0.6399999856948853,
                    1
                ],
                "metallicFactor" : 0,
                "roughnessFactor" : 0.6732679605484009
            }
        },
        {
            "doubleSided" : true,
            "name" : "black",
            "pbrMetallicRoughness" : {
                "baseColorFactor" : [
                    0.015079000033438206,
                    0.015079000033438206,
                    0.015079000033438206,
                    1
                ],
                "metallicFactor" : 0,
                "roughnessFactor" : 0.6732679605484009
            }
        }
    ],
    "meshes" : [
        {
            "name" : "Dice",
            "primitives" : [
                {
                    "attributes" : {
                        "POSITION" : 0,
                        "NORMAL" : 1
                    },
                    "indices" : 2,
                    "material" : 0
                },
                {
                    "attributes" : {
                        "POSITION" : 3,
                        "NORMAL" : 4
                    },
                    "indices" : 5,
                    "material" : 1
                }
            ]
        }
    ],
    "accessors" : [
        {
            "bufferView" : 0,
            "componentType" : 5126,
            "count" : 13949,
            "max" : [
                1.2727789878845215,
                1.2767339944839478,
                -0.26373401284217834
            ],
            "min" : [
                -1.2727669477462769,
                -1.2767339944839478,
                -2.9670350551605225
            ],
            "type" : "VEC3"
        },
        {
            "bufferView" : 1,
            "componentType" : 5126,
            "count" : 13949,
            "type" : "VEC3"
        },
        {
            "bufferView" : 2,
            "componentType" : 5123,
            "count" : 81792,
            "type" : "SCALAR"
        },
        {
            "bufferView" : 3,
            "componentType" : 5126,
            "count" : 7077,
            "max" : [
                0.9873470067977905,
                1.0713289976119995,
                -0.40863698720932007
            ],
            "min" : [
                -1.1725209951400757,
                -1.1668800115585327,
                -2.5777881145477295
            ],
            "type" : "VEC3"
        },
        {
            "bufferView" : 4,
            "componentType" : 5126,
            "count" : 7077,
            "type" : "VEC3"
        },
        {
            "bufferView" : 5,
            "componentType" : 5123,
            "count" : 40320,
            "type" : "SCALAR"
        }
    ],
    "bufferViews" : [
        {
            "buffer" : 0,
            "byteLength" : 167388,
            "byteOffset" : 0
        },
        {
            "buffer" : 0,
            "byteLength" : 167388,
            "byteOffset" : 167388
        },
        {
            "buffer" : 0,
            "byteLength" : 163584,
            "byteOffset" : 334776
        },
        {
            "buffer" : 0,
            "byteLength" : 84924,
            "byteOffset" : 498360
        },
        {
            "buffer" : 0,
            "byteLength" : 84924,
            "byteOffset" : 583284
        },
        {
            "buffer" : 0,
            "byteLength" : 80640,
            "byteOffset" : 668208
        }
    ],
    "buffers" : [
        {
            "byteLength" : 748848,
            "uri" : "dice.bin"
        }
    ]
}
